PathFileType	4	(X/Y/Z)	C:/Users/beibeiliu/ov580/test_trc/User3\sequence.19_training_dense_right.trc
DataRate	CameraRate	NumFrames	NumMarkers	Units	OrigDataRate	OrigDataStartFrame	OrigNumFrames
120	120	18	19	mm	120	104	275
Frame#	Time	ThumbCMC			ThumbMCP			ThumbIP			ThumbTip			IndexMCP			IndexPIP			IndexTip			MiddleMCP			MiddlePIP			MiddleTip			RingMCP			RingPIP			RingTip			PinkyMCP			PinkyPIP			PinkyTip			BackHand1			BackHand2			BackHand3	
		X0	Y0	Z0	X1	Y1	Z1	X2	Y2	Z2	X3	Y3	Z3	X4	Y4	Z4	X5	Y5	Z5	X6	Y6	Z6	X7	Y7	Z7	X8	Y8	Z8	X9	Y9	Z9	X10	Y10	Z10	X11	Y11	Z11	X12	Y12	Z12	X13	Y13	Z13	X14	Y14	Z14	X15	Y15	Z15	X16	Y16	Z16	X17	Y17	Z17	X18	Y18	Z18	
103	0.858333	180.256	20.9789	14.8399	174.117	27.9833	-9.5073	169.161	43.5917	-33.0503	163.263	59.8757	-48.298	200.052	4.65695	-63.6371	199.966	7.18603	-89.8135	202.817	5.73301	-114.467	188.75	-24.8896	-64.3979	155.824	-33.989	-65.4603	151.726	-27.1166	-27.8647	186.261	-40.1938	-52.7257	160.521	-49.8961	-43.0616	162.418	-36.2524	-12.0083	191.086	-57.3177	-39.5907	166.11	-57.0541	-31.6212	166.468	-42.5498	-3.85964	225.084	-22.2798	-12.5158	227.937	-17.9758	20.639	211.086	11.7727	2.45228	
104	0.866667	173.73	10.6321	16.8263	163.099	25.8981	-7.31418	156.116	39.1725	-30.0416	146.296	50.3175	-42.5579	198.162	18.4221	-58.239	202.321	21.7848	-85.715	209.793	19.5096	-108.559	196.129	-13.2414	-68.1323	173.501	-36.6713	-69.9051	167.604	-35.2399	-31.2286	202.685	-34.7568	-54.3598	175.871	-50.2239	-47.0734	178.648	-39.958	-14.533	212.447	-47.8709	-41.9308	186.151	-58.7978	-35.2181	182.233	-42.0762	-6.20285	229.509	-8.4592	-6.17817	228.649	-10.9583	25.4126	206.556	11.6823	7.85908	
105	0.875	168.977	5.17599	15.536	155.819	16.4034	-6.61596	143.101	32.9903	-27.7689	133.115	42.8907	-41.9684	196.914	22.4219	-57.6671	199.593	27.7258	-81.0195	206.779	31.665	-102.993	202.748	-9.25078	-66.2865	186.137	-34.4136	-73.0779	178.043	-36.5646	-32.9099	209.516	-27.7156	-56.7396	189.422	-49.378	-49.6552	185.983	-41.8215	-19.4239	223.441	-39.5887	-43.3359	198.471	-54.7633	-37.1476	194.678	-45.1326	-9.98036	228.915	-0.989685	-6.47544	225.921	-3.6385	26.351	198.76	14.3686	7.33453	
106	0.883333	162.479	-0.276057	16.2488	150.751	8.36743	-4.96282	136.702	23.2618	-26.7763	125.237	28.8985	-39.7904	195.346	21.6358	-55.977	197.535	28.4304	-77.0683	203.775	37.434	-102.022	206.896	-7.86639	-65.9565	193.121	-36.5495	-72.0595	186.056	-38.247	-30.7706	215.606	-22.2785	-56.2279	201.556	-47.9785	-52.7587	192.875	-42.4179	-22.1264	232.19	-33.5048	-41.4046	211.105	-55.261	-36.2072	206.076	-48.1466	-10.0479	231.368	3.94478	-4.09399	227.705	-2.6699	29.0434	196.05	13.8171	8.14023	
107	0.891667	160.86	-7.59535	15.9597	150.758	-0.430038	-8.61004	132.466	13.5029	-28.8727	116.732	19.914	-40.8592	188.561	22.2205	-54.528	188.214	31.5505	-79.5919	195.495	39.655	-104.274	205.121	-5.78038	-67.3777	195.547	-35.4255	-72.9808	192.224	-43.3155	-35.9033	217.729	-19.9029	-54.5028	209.352	-50.393	-49.7056	197.914	-43.1688	-21.7193	234.061	-31.1794	-43.1838	218.683	-52.6722	-40.8011	206.636	-45.5893	-11.3079	227.819	5.57023	-2.76993	222.398	1.24323	26.637	191.634	11.0559	10.6719	
108	0.9	161.923	-13.7557	15.6212	145.029	-5.00834	-9.41721	125.045	4.08249	-27.4413	113.593	9.37254	-43.3171	184.81	18.0179	-53.3767	185.031	28.2953	-80.9659	187.435	36.7426	-104.298	202.618	-4.9381	-62.1625	200.783	-37.8882	-73.7376	190.519	-45.4355	-35.9417	217.733	-22.9463	-55.7991	211.818	-51.8873	-50.0602	201.232	-44.9408	-17.4008	232.807	-31.428	-44.4003	219.765	-52.0116	-41.1315	209.4	-48.8483	-9.90754	224.723	4.37038	-1.44497	217.656	1.40341	27.4156	188.457	9.86987	10.792	
109	0.908333	156.643	-17.551	15.2701	143.924	-13.8491	-7.37738	123.416	-5.20662	-31.4197	110.058	-1.70635	-45.4838	178.148	11.2644	-53.3489	178.377	18.4792	-78.4127	182.469	29.5141	-105.105	203.575	-13.0524	-65.8076	195.229	-42.5382	-72.6088	192.525	-51.0967	-34.7725	219.149	-26.503	-53.3027	213.285	-54.4423	-50.5206	200.893	-50.108	-18.2442	230.694	-30.5643	-43.0491	219.22	-56.4471	-37.6007	208.428	-49.0692	-10.858	219.036	3.14357	-1.96692	217.441	-0.206408	28.3004	185.049	2.90807	11.292	
110	0.916667	152.845	-20.7226	12.3555	138.133	-21.253	-9.03495	117.523	-16.6417	-27.8394	102.291	-13.7993	-43.9068	178.193	3.91641	-54.5749	176.046	10.4293	-83.1562	174.885	18.2446	-105.786	196.218	-16.6468	-63.4112	195.888	-52.5641	-67.6524	190.072	-55.0552	-29.8154	215.354	-29.0099	-50.8701	206.149	-60.7913	-46.5432	197.668	-54.935	-18.4911	229.784	-34.6234	-41.6415	216.82	-58.2926	-36.8998	208.724	-53.2839	-6.07972	215.772	0.660925	-1.49053	211.559	-3.87032	29.9275	180.076	2.37543	8.31892	
111	0.925	152.653	-25.7809	13.1872	136.295	-28.1706	-7.32174	114.507	-25.3588	-25.7371	100.539	-25.5989	-42.4132	172.946	-3.31002	-57.6686	170.489	0.348709	-84.9038	169.673	4.57616	-109.125	195.156	-25.8615	-63.1674	190.579	-58.7493	-67.7074	185.752	-59.338	-24.7234	212.753	-36.8634	-50.5273	204.302	-65.5188	-44.073	194.822	-56.5075	-12.5425	225.168	-38.0781	-37.9923	215.312	-63.9724	-32.5077	207.054	-56.9312	-5.3057	207.655	-1.16323	-6.7987	210.569	-3.43528	26.796	175.188	-1.1422	10.933	
112	0.933333	148.436	-28.5249	13.9932	134.202	-32.9394	-9.39324	112.486	-34.2884	-26.4429	95.7027	-36.461	-42.3216	166.56	-13.5611	-58.6705	167.795	-11.9184	-87.1115	167.832	-10.5114	-107.643	189.217	-38.0899	-64.5894	191.2	-68.2014	-63.3636	181.486	-66.9225	-22.2339	206.744	-44.4848	-51.0351	202.602	-73.6193	-38.824	193.513	-60.4036	-8.07105	224.58	-45.7946	-36.4881	215.159	-71.7483	-26.0601	204.467	-58.0076	-1.27798	207.662	-3.37989	-8.37517	205.599	-3.85433	24.5983	172.648	-6.37994	6.75151	
113	0.941667	142.908	-31.8842	17.13	126.51	-39.5602	-2.88208	106.571	-41.2745	-26.8707	92.7896	-46.9363	-37.6154	165.966	-21.5318	-59.3784	160.905	-24.0012	-83.8548	166.337	-22.1571	-111.977	191.538	-44.6975	-59.6748	189.833	-79.1086	-54.2262	181.507	-74.7448	-20.031	203.667	-52.2368	-47.7187	204.636	-80.0713	-33.7279	190.229	-65.6212	-4.01865	221.518	-54.7138	-35.6062	208.913	-76.0399	-23.1579	202.934	-64.1192	2.32628	203.118	-9.81573	-9.55729	200.331	-8.04018	26.4087	168.634	-10.2633	7.98638	
114	0.95	140.992	-35.0661	15.9004	125.931	-43.4237	-1.49328	107.825	-48.7203	-21.717	89.9205	-52.7577	-37.9976	161.209	-31.0635	-59.9836	159.696	-35.3107	-86.0271	162.497	-36.2932	-110.232	188.665	-54.8037	-59.2921	182.785	-85.2508	-53.004	176.422	-79.5542	-14.9934	199.772	-60.2563	-45.669	198.26	-87.3984	-27.1757	189.924	-73.5558	-0.793581	220.268	-60.1591	-32.5447	207.188	-82.7016	-17.6519	200.384	-68.231	5.64616	202.196	-13.3417	-5.45785	197.09	-8.77871	20.8868	165.294	-13.8382	7.90325	
115	0.958333	138.421	-36.0154	21.5123	120.632	-45.4219	1.355	101.363	-51.0712	-17.7489	88.2576	-58.1422	-33.7173	160.69	-38.8122	-57.291	155.43	-46.1035	-84.7447	153.513	-51.8123	-110.765	181.067	-62.7835	-56.1416	179.516	-96.0387	-43.3241	170.465	-81.7144	-6.5102	199.625	-66.4026	-39.2793	191.492	-93.668	-24.586	185.042	-76.9418	4.20451	212.28	-68.4749	-29.5721	200.034	-87.5056	-13.9084	192.167	-71.6093	7.54161	199.152	-19.8482	-5.89126	196.372	-13.204	23.0961	167.078	-14.4566	4.5056	
116	0.966667	139.707	-35.6779	19.3755	118.465	-45.8038	1.70695	95.971	-51.0974	-16.7021	83.9069	-57.0525	-26.4327	156.193	-47.2878	-55.7915	149.004	-57.5496	-83.3482	151.972	-67.9823	-106.772	173.492	-73.5292	-52.0936	171.886	-102.823	-35.2804	168.078	-86.6878	-1.18754	190.696	-79.1307	-35.9151	185.881	-100.898	-16.261	178.524	-81.9462	8.72286	205.192	-77.0836	-26.0851	196.26	-95.6166	-9.77971	185.786	-73.7493	11.1517	196.011	-26.8669	-10.4133	195.051	-13.5438	23.5461	162.856	-15.914	6.37774	
117	0.975	137.278	-35.2894	22.6331	114.169	-43.1763	7.66369	96.597	-51.3745	-12.813	75.6354	-54.0464	-22.6512	146.3	-55.6516	-54.7343	140.953	-68.1386	-75.6447	141.365	-81.2196	-98.1355	166.479	-81.0851	-45.1807	159.062	-107.88	-31.9788	159.072	-89.9295	5.85403	185.193	-86.433	-29.3713	176.061	-105.328	-8.4746	168.498	-81.4957	16.2152	199.761	-88.4294	-19.1722	187.611	-101.325	-1.59164	180.006	-75.1052	17.6668	192.189	-32.7786	-9.09702	197.576	-20.0894	23.377	161.907	-21.5471	3.01598	
118	0.983333	133.186	-30.872	27.151	113.061	-42.5035	7.23206	90.7161	-46.9103	-6.12524	72.9329	-50.221	-18.3692	140.973	-59.977	-46.4319	133.422	-74.5857	-67.9787	129.386	-90.6377	-89.2226	158.25	-84.5391	-37.4062	148.464	-112.34	-21.9363	153.379	-92.3774	13.1132	175.734	-95.5988	-22.2954	166.197	-108.67	4.0692	159.719	-84.2764	23.2882	192.595	-91.1351	-12.7171	177.958	-103.928	11.1076	173.509	-80.7247	23.8883	191.755	-37.2377	-5.89767	196.512	-23.9247	22.5853	161.886	-22.3713	3.44593	
119	0.991667	131.415	-30.2918	28.2252	109.337	-38.6667	11.9372	89.1263	-44.0743	-3.40233	69.7859	-47.0091	-12.8756	133.649	-63.6041	-40.9858	126.798	-82.0699	-62.2756	119.62	-97.9777	-79.5791	147.35	-92.9433	-31.8538	135.996	-114.42	-10.1175	144.07	-93.5134	19.4048	163.338	-96.2059	-15.8971	153.961	-110.645	12.3576	151.384	-86.9161	29.3178	184.334	-98.5888	-5.31727	164.794	-106.028	17.0251	164.679	-80.8995	30.8842	185.753	-44.1378	-2.47793	191.879	-27.871	19.9346	157.135	-25.0941	6.73165	
120	1	129.48	-25.4682	30.8503	105.193	-33.4811	13.188	84.8504	-40.2874	-1.0637	66.2507	-41.1214	-8.91141	126.931	-70.4558	-39.292	114.724	-84.3601	-55.3282	108.288	-101.897	-69.9294	133.679	-95.2209	-24.1621	123.773	-114.44	-2.87071	132.947	-89.2505	28.0482	152.618	-100.56	-8.23339	141.739	-112.77	17.9699	144.647	-86.0657	37.7228	171.749	-104.067	2.29692	154.832	-110.02	23.5752	155.965	-81.1119	38.2749	179.4	-51.8134	-3.7414	190.623	-30.338	23.3406	157.627	-25.9376	6.66818	
